<svg id="Group_4009" data-name="Group 4009" xmlns="http://www.w3.org/2000/svg" width="140" height="57.772" viewBox="0 0 140 57.772">
  <g id="Group_4008" data-name="Group 4008" transform="translate(0)">
    <g id="Group_4007" data-name="Group 4007" transform="translate(33.045 17.364)">
      <path id="Path_12370" data-name="Path 12370" d="M795.827,3779.1c.061.081.078.147.053.2s-.089.076-.19.076H793.87a.359.359,0,0,1-.273-.136l-2.974-3.566h-2.155v3.475a.2.2,0,0,1-.228.228h-1.472a.2.2,0,0,1-.228-.228v-10.167a.2.2,0,0,1,.228-.228h4.386a4.489,4.489,0,0,1,2.982.948,3.117,3.117,0,0,1,1.131,2.512,3.2,3.2,0,0,1-.652,2.072,3.492,3.492,0,0,1-1.851,1.146Zm-7.36-8.665v3.551H790.8a3.218,3.218,0,0,0,1.859-.486,1.5,1.5,0,0,0,.706-1.29,1.525,1.525,0,0,0-.668-1.282,2.866,2.866,0,0,0-1.745-.493Z" transform="translate(-785.352 -3768.142)" fill="#67737a"/>
      <path id="Path_12371" data-name="Path 12371" d="M863.757,3799.359a4.06,4.06,0,0,1-2.921-1.062,3.7,3.7,0,0,1-1.115-2.808,3.751,3.751,0,0,1,1.085-2.807,3.892,3.892,0,0,1,2.845-1.062,3.758,3.758,0,0,1,2.769,1.047,3.72,3.72,0,0,1,1.055,2.762q0,.212-.03.606a.236.236,0,0,1-.258.2h-5.6a2.176,2.176,0,0,0,.8,1.2,2.3,2.3,0,0,0,1.411.44,1.8,1.8,0,0,0,1.441-.532.406.406,0,0,1,.288-.136h1.5a.219.219,0,0,1,.182.076.15.15,0,0,1,0,.182,2.992,2.992,0,0,1-1.328,1.381A4.335,4.335,0,0,1,863.757,3799.359Zm-2.216-4.431h4.052a1.884,1.884,0,0,0-.538-1.312,1.835,1.835,0,0,0-1.359-.508,2.187,2.187,0,0,0-1.449.5A1.987,1.987,0,0,0,861.541,3794.928Z" transform="translate(-848.577 -3787.902)" fill="#67737a"/>
      <path id="Path_12372" data-name="Path 12372" d="M936.268,3775.29a.251.251,0,0,1-.182.273,3.371,3.371,0,0,1-1.032.182,1.764,1.764,0,0,1-1.76-.941,3.691,3.691,0,0,1-2.5.941,4,4,0,0,1-2.891-1.085,3.995,3.995,0,0,1,0-5.569,4,4,0,0,1,2.891-1.085,3.644,3.644,0,0,1,2.125.652v-4.143a.2.2,0,0,1,.228-.228h1.411a.2.2,0,0,1,.228.228v9.045a.568.568,0,0,0,.144.41.507.507,0,0,0,.387.152,3.04,3.04,0,0,0,.561-.061c.162-.03.253.031.273.182Zm-5.463-1.062a1.962,1.962,0,0,0,1.533-.66,2.713,2.713,0,0,0,0-3.384,1.963,1.963,0,0,0-1.533-.66,2.05,2.05,0,0,0-1.57.66,2.636,2.636,0,0,0,0,3.384A2.049,2.049,0,0,0,930.8,3774.227Z" transform="translate(-906.505 -3764.287)" fill="#67737a"/>
      <path id="Path_12373" data-name="Path 12373" d="M1043.474,3775.29a.251.251,0,0,1-.182.273,3.37,3.37,0,0,1-1.032.182,1.764,1.764,0,0,1-1.76-.941,3.69,3.69,0,0,1-2.5.941,4,4,0,0,1-2.891-1.085,3.995,3.995,0,0,1,0-5.569,4,4,0,0,1,2.891-1.085,3.645,3.645,0,0,1,2.125.652v-4.143a.2.2,0,0,1,.228-.228h1.411a.2.2,0,0,1,.228.228v9.045a.567.567,0,0,0,.144.41.507.507,0,0,0,.387.152,3.042,3.042,0,0,0,.562-.061q.242-.045.273.182Zm-5.463-1.062a1.962,1.962,0,0,0,1.533-.66,2.714,2.714,0,0,0,0-3.384,1.963,1.963,0,0,0-1.533-.66,2.051,2.051,0,0,0-1.571.66,2.636,2.636,0,0,0,0,3.384A2.05,2.05,0,0,0,1038.011,3774.227Z" transform="translate(-999.127 -3764.287)" fill="#67737a"/>
      <path id="Path_12374" data-name="Path 12374" d="M1116.213,3799.359a4.059,4.059,0,0,1-2.921-1.062,3.7,3.7,0,0,1-1.115-2.808,3.751,3.751,0,0,1,1.085-2.807,3.892,3.892,0,0,1,2.845-1.062,3.759,3.759,0,0,1,2.77,1.047,3.719,3.719,0,0,1,1.055,2.762c0,.142-.01.344-.031.606a.236.236,0,0,1-.258.2h-5.6a2.174,2.174,0,0,0,.8,1.2,2.3,2.3,0,0,0,1.411.44,1.8,1.8,0,0,0,1.442-.532.405.405,0,0,1,.288-.136h1.5a.219.219,0,0,1,.182.076.15.15,0,0,1,0,.182,2.992,2.992,0,0,1-1.328,1.381A4.335,4.335,0,0,1,1116.213,3799.359Zm-2.216-4.431h4.052a1.884,1.884,0,0,0-.538-1.312,1.835,1.835,0,0,0-1.358-.508,2.188,2.188,0,0,0-1.449.5A1.988,1.988,0,0,0,1114,3794.928Z" transform="translate(-1066.691 -3787.902)" fill="#67737a"/>
      <path id="Path_12375" data-name="Path 12375" d="M782.959,3879.194a.567.567,0,0,1-.549-.349l-4.554-10.771a.371.371,0,0,1,0-.374.418.418,0,0,1,.366-.142h3.092a.5.5,0,0,1,.532.349l2.726,6.715,2.726-6.715a.529.529,0,0,1,.549-.349h3.075q.565,0,.382.515l-4.588,10.771a.505.505,0,0,1-.515.349Z" transform="translate(-777.807 -3853.511)" fill="#67737a"/>
      <path id="Path_12376" data-name="Path 12376" d="M886.722,3898.448a.425.425,0,0,1-.366.515,6.831,6.831,0,0,1-1.529.183,2.921,2.921,0,0,1-2.476-.964,4.349,4.349,0,0,1-2.842.964,4.165,4.165,0,0,1-3.125-1.23,4.887,4.887,0,0,1,0-6.407,4.18,4.18,0,0,1,3.125-1.221,3.4,3.4,0,0,1,2.377.814v-.067q0-.431.465-.431h2.46q.449,0,.449.431v4.455a1.163,1.163,0,0,0,.1.573.417.417,0,0,0,.383.158,2.209,2.209,0,0,0,.3-.017q.448,0,.5.382Zm-6.6-1.878a1.482,1.482,0,0,0,1.18-.5,2.353,2.353,0,0,0,0-2.718,1.47,1.47,0,0,0-1.18-.507,1.424,1.424,0,0,0-1.147.515,2.315,2.315,0,0,0,0,2.693A1.422,1.422,0,0,0,880.123,3896.57Z" transform="translate(-861.94 -3873.147)" fill="#67737a"/>
      <path id="Path_12377" data-name="Path 12377" d="M968.9,3899.146a5.058,5.058,0,0,1-3.548-1.221,4.525,4.525,0,0,1,0-6.424,5.725,5.725,0,0,1,6.615-.307,3.629,3.629,0,0,1,1.488,2.435.374.374,0,0,1-.091.341.483.483,0,0,1-.357.125h-2.161a.6.6,0,0,1-.532-.382,1.425,1.425,0,0,0-1.4-.814,1.631,1.631,0,0,0-1.238.5,1.829,1.829,0,0,0-.474,1.313,1.851,1.851,0,0,0,.474,1.33,1.63,1.63,0,0,0,1.238.5,1.382,1.382,0,0,0,1.4-.831.622.622,0,0,1,.532-.366h2.161a.485.485,0,0,1,.357.125.375.375,0,0,1,.091.341,3.628,3.628,0,0,1-1.488,2.435A5.054,5.054,0,0,1,968.9,3899.146Z" transform="translate(-938.686 -3873.147)" fill="#67737a"/>
      <path id="Path_12378" data-name="Path 12378" d="M1052.321,3900.454a.425.425,0,0,1-.366.515,6.674,6.674,0,0,1-1.529.183,2.8,2.8,0,0,1-2.593-1.064,3.545,3.545,0,0,1-2.742,1.064,3.262,3.262,0,0,1-3.49-3.474v-4.638q0-.431.465-.432h2.593q.465,0,.465.432v3.839q0,1.3,1.081,1.3a1.055,1.055,0,0,0,.839-.333,1.368,1.368,0,0,0,.291-.931v-3.873q0-.431.449-.432h2.609q.465,0,.465.432v4.454a1.157,1.157,0,0,0,.1.574.416.416,0,0,0,.382.158,1.873,1.873,0,0,0,.283-.017q.449,0,.5.382Z" transform="translate(-1005.716 -3875.153)" fill="#67737a"/>
      <path id="Path_12379" data-name="Path 12379" d="M1130.886,3890.265a3.575,3.575,0,0,1,2.593.947,3.329,3.329,0,0,1,.98,2.51v4.637q0,.449-.465.449h-2.609a.469.469,0,0,1-.333-.124.425.425,0,0,1-.133-.325v-3.839a1.4,1.4,0,0,0-.291-.947,1.036,1.036,0,0,0-.823-.333,1.1,1.1,0,0,0-.848.324,1.311,1.311,0,0,0-.3.922v3.873q0,.449-.465.449H1125.6q-.465,0-.465-.449V3893.9a.95.95,0,0,0-.108-.54.513.513,0,0,0-.424-.141h-.166c-.322.022-.482-.1-.482-.366v-1.845a.5.5,0,0,1,.366-.5,3.875,3.875,0,0,1,1.546-.25,2.566,2.566,0,0,1,2.244,1.031A3.582,3.582,0,0,1,1130.886,3890.265Z" transform="translate(-1076.868 -3873.125)" fill="#67737a"/>
      <path id="Path_12380" data-name="Path 12380" d="M1220.773,3898.448a.425.425,0,0,1-.365.515,6.832,6.832,0,0,1-1.529.183,2.921,2.921,0,0,1-2.476-.964,4.349,4.349,0,0,1-2.842.964,4.164,4.164,0,0,1-3.125-1.23,4.887,4.887,0,0,1,0-6.407,4.179,4.179,0,0,1,3.125-1.221,3.4,3.4,0,0,1,2.377.814v-.067q0-.431.465-.431h2.46q.449,0,.449.431v4.455a1.162,1.162,0,0,0,.1.573.417.417,0,0,0,.383.158,2.208,2.208,0,0,0,.3-.017q.448,0,.5.382Zm-6.6-1.878a1.481,1.481,0,0,0,1.18-.5,2.352,2.352,0,0,0,0-2.718,1.47,1.47,0,0,0-1.18-.507,1.423,1.423,0,0,0-1.147.515,2.315,2.315,0,0,0,0,2.693A1.422,1.422,0,0,0,1214.174,3896.57Z" transform="translate(-1150.55 -3873.147)" fill="#67737a"/>
      <path id="Path_12381" data-name="Path 12381" d="M1302.95,3899.146a5.058,5.058,0,0,1-3.548-1.221,4.525,4.525,0,0,1,0-6.424,5.725,5.725,0,0,1,6.615-.307,3.627,3.627,0,0,1,1.488,2.435.374.374,0,0,1-.091.341.482.482,0,0,1-.357.125h-2.161a.6.6,0,0,1-.532-.382,1.425,1.425,0,0,0-1.4-.814,1.631,1.631,0,0,0-1.238.5,1.829,1.829,0,0,0-.474,1.313,1.851,1.851,0,0,0,.474,1.33,1.631,1.631,0,0,0,1.238.5,1.382,1.382,0,0,0,1.4-.831.622.622,0,0,1,.532-.366h2.161a.484.484,0,0,1,.357.125.375.375,0,0,1,.091.341,3.626,3.626,0,0,1-1.488,2.435A5.053,5.053,0,0,1,1302.95,3899.146Z" transform="translate(-1227.292 -3873.147)" fill="#67737a"/>
      <path id="Path_12382" data-name="Path 12382" d="M1376.878,3862.542a1.977,1.977,0,0,1-1.413-.516,1.835,1.835,0,0,1,0-2.617,2.156,2.156,0,0,1,2.817,0,1.816,1.816,0,0,1,0,2.617A1.984,1.984,0,0,1,1376.878,3862.542Zm-1.3,9.157q-.466,0-.466-.448V3863.9q0-.432.466-.432h2.593q.465,0,.465.432v7.346q0,.449-.465.448Z" transform="translate(-1293.691 -3846.016)" fill="#67737a"/>
      <path id="Path_12383" data-name="Path 12383" d="M1415.081,3875.393a5,5,0,0,1-3.524-1.222,4.545,4.545,0,0,1,0-6.424,5.025,5.025,0,0,1,3.524-1.213,5.081,5.081,0,0,1,3.549,1.213,4.524,4.524,0,0,1,0,6.424A5.059,5.059,0,0,1,1415.081,3875.393Zm0-2.742a1.714,1.714,0,0,0,1.255-.465,1.833,1.833,0,0,0,0-2.46,1.712,1.712,0,0,0-1.255-.465,1.7,1.7,0,1,0,0,3.39Zm-1.081-6.964a.358.358,0,0,1-.34-.158.368.368,0,0,1,.025-.374l1.064-2.028a.544.544,0,0,1,.515-.333h2.526a.357.357,0,0,1,.349.158.351.351,0,0,1-.066.373l-1.4,2.078a.594.594,0,0,1-.532.282Z" transform="translate(-1324.199 -3849.394)" fill="#67737a"/>
      <path id="Path_12384" data-name="Path 12384" d="M1493.767,3890.265a3.575,3.575,0,0,1,2.593.947,3.33,3.33,0,0,1,.981,2.51v4.637q0,.449-.465.449h-2.61a.469.469,0,0,1-.332-.124.425.425,0,0,1-.133-.325v-3.839a1.4,1.4,0,0,0-.291-.947,1.035,1.035,0,0,0-.823-.333,1.1,1.1,0,0,0-.848.324,1.311,1.311,0,0,0-.3.922v3.873q0,.449-.465.449h-2.593q-.466,0-.465-.449V3893.9a.951.951,0,0,0-.108-.54.514.514,0,0,0-.424-.141h-.166c-.322.022-.482-.1-.482-.366v-1.845a.5.5,0,0,1,.366-.5,3.874,3.874,0,0,1,1.546-.25,2.566,2.566,0,0,1,2.244,1.031A3.581,3.581,0,0,1,1493.767,3890.265Z" transform="translate(-1390.386 -3873.125)" fill="#67737a"/>
      <path id="Path_12385" data-name="Path 12385" d="M795.827,3991.593c.061.082.078.147.053.2s-.089.075-.19.075H793.87a.358.358,0,0,1-.273-.136l-2.974-3.566h-2.155v3.475a.2.2,0,0,1-.228.227h-1.472a.2.2,0,0,1-.228-.227v-10.167a.2.2,0,0,1,.228-.228h4.386a4.489,4.489,0,0,1,2.982.948,3.117,3.117,0,0,1,1.131,2.512,3.2,3.2,0,0,1-.652,2.072,3.5,3.5,0,0,1-1.851,1.146Zm-7.36-8.665v3.551H790.8a3.218,3.218,0,0,0,1.859-.486,1.5,1.5,0,0,0,.706-1.29,1.525,1.525,0,0,0-.668-1.282,2.87,2.87,0,0,0-1.745-.493Z" transform="translate(-785.352 -3951.73)" fill="#67737a"/>
      <path id="Path_12386" data-name="Path 12386" d="M867.212,4011.4a.25.25,0,0,1-.182.273,3.362,3.362,0,0,1-1.032.182,1.765,1.765,0,0,1-1.76-.941,3.691,3.691,0,0,1-2.5.941,4,4,0,0,1-2.891-1.085,3.994,3.994,0,0,1,0-5.569,4,4,0,0,1,2.891-1.085,3.566,3.566,0,0,1,2.14.667v-.212a.2.2,0,0,1,.228-.228h1.4a.2.2,0,0,1,.228.228v5.1a.569.569,0,0,0,.144.41.508.508,0,0,0,.387.152,3,3,0,0,0,.561-.061c.162-.03.253.031.273.182Zm-5.463-1.062a1.962,1.962,0,0,0,1.533-.66,2.714,2.714,0,0,0,0-3.384,1.963,1.963,0,0,0-1.533-.66,2.051,2.051,0,0,0-1.571.66,2.636,2.636,0,0,0,0,3.384A2.05,2.05,0,0,0,861.749,4010.335Z" transform="translate(-846.842 -3971.489)" fill="#67737a"/>
      <path id="Path_12387" data-name="Path 12387" d="M943.406,3987.783a.251.251,0,0,1-.182.273,3.369,3.369,0,0,1-1.032.182,1.764,1.764,0,0,1-1.76-.941,3.69,3.69,0,0,1-2.5.941,4,4,0,0,1-2.891-1.085,3.995,3.995,0,0,1,0-5.569,4.005,4.005,0,0,1,2.891-1.085,3.647,3.647,0,0,1,2.125.652v-4.143a.2.2,0,0,1,.228-.228h1.411a.2.2,0,0,1,.228.228v9.045a.569.569,0,0,0,.144.41.509.509,0,0,0,.387.152,3.06,3.06,0,0,0,.561-.061c.162-.03.253.03.273.182Zm-5.463-1.062a1.962,1.962,0,0,0,1.533-.66,2.713,2.713,0,0,0,0-3.384,1.962,1.962,0,0,0-1.533-.66,2.05,2.05,0,0,0-1.571.66,2.636,2.636,0,0,0,0,3.384A2.05,2.05,0,0,0,937.943,3986.721Z" transform="translate(-912.672 -3947.875)" fill="#67737a"/>
      <path id="Path_12388" data-name="Path 12388" d="M1019.6,4011.4a.251.251,0,0,1-.182.273,3.363,3.363,0,0,1-1.032.182,1.765,1.765,0,0,1-1.76-.941,3.692,3.692,0,0,1-2.5.941,4,4,0,0,1-2.891-1.085,3.994,3.994,0,0,1,0-5.569,4,4,0,0,1,2.891-1.085,3.566,3.566,0,0,1,2.14.667v-.212a.2.2,0,0,1,.228-.228h1.4a.2.2,0,0,1,.228.228v5.1a.569.569,0,0,0,.144.41.508.508,0,0,0,.387.152,3,3,0,0,0,.561-.061c.162-.03.253.031.273.182Zm-5.463-1.062a1.962,1.962,0,0,0,1.533-.66,2.713,2.713,0,0,0,0-3.384,1.963,1.963,0,0,0-1.533-.66,2.05,2.05,0,0,0-1.57.66,2.635,2.635,0,0,0,0,3.384A2.05,2.05,0,0,0,1014.137,4010.335Z" transform="translate(-978.501 -3971.489)" fill="#67737a"/>
      <path id="Path_12389" data-name="Path 12389" d="M1091.159,4004.265a.222.222,0,0,1,.167.273l-.182,1.138a.205.205,0,0,1-.273.182,4.919,4.919,0,0,0-.865-.076,2.095,2.095,0,0,0-2.2,2.2v3.414a.2.2,0,0,1-.228.228h-1.4a.2.2,0,0,1-.228-.228v-5.1q0-.561-.637-.562a3.809,3.809,0,0,0-.425.046q-.273.031-.273-.182v-1.062a.258.258,0,0,1,.182-.273,3.108,3.108,0,0,1,.926-.152,1.677,1.677,0,0,1,1.776,1.093,3.271,3.271,0,0,1,2.519-1.093A3.928,3.928,0,0,1,1091.159,4004.265Z" transform="translate(-1042.882 -3971.489)" fill="#67737a"/>
      <path id="Path_12390" data-name="Path 12390" d="M1167.969,3992.094a4.3,4.3,0,0,1-2.8-.895,3.386,3.386,0,0,1-1.252-2.383q-.031-.243.227-.243h1.487a.214.214,0,0,1,.228.212,1.755,1.755,0,0,0,.721,1.169,2.482,2.482,0,0,0,1.51.44,1.987,1.987,0,0,0,1.563-.667,2.557,2.557,0,0,0,.592-1.761v-5.038H1165.6a.2.2,0,0,1-.228-.228v-1.229a.2.2,0,0,1,.228-.228h6.374a.2.2,0,0,1,.228.228v6.556a3.949,3.949,0,0,1-1.123,2.99A4.309,4.309,0,0,1,1167.969,3992.094Z" transform="translate(-1111.391 -3951.73)" fill="#67737a"/>
      <path id="Path_12391" data-name="Path 12391" d="M1244.612,4011.4a.251.251,0,0,1-.182.273,3.362,3.362,0,0,1-1.032.182,1.765,1.765,0,0,1-1.76-.941,3.691,3.691,0,0,1-2.5.941,4,4,0,0,1-2.891-1.085,3.994,3.994,0,0,1,0-5.569,4,4,0,0,1,2.891-1.085,3.566,3.566,0,0,1,2.14.667v-.212a.2.2,0,0,1,.228-.228h1.4a.2.2,0,0,1,.228.228v5.1a.57.57,0,0,0,.144.41.508.508,0,0,0,.387.152,3,3,0,0,0,.561-.061c.162-.03.253.031.273.182Zm-5.463-1.062a1.963,1.963,0,0,0,1.533-.66,2.714,2.714,0,0,0,0-3.384,1.963,1.963,0,0,0-1.533-.66,2.051,2.051,0,0,0-1.571.66,2.636,2.636,0,0,0,0,3.384A2.05,2.05,0,0,0,1239.149,4010.335Z" transform="translate(-1172.904 -3971.489)" fill="#67737a"/>
      <path id="Path_12392" data-name="Path 12392" d="M1316.221,3988.238a2.408,2.408,0,0,1-1.541-.463,1.481,1.481,0,0,1-.584-1.221v-9.546a.2.2,0,0,1,.228-.228h1.4a.2.2,0,0,1,.228.228v9.045a.568.568,0,0,0,.144.41.509.509,0,0,0,.387.152,3.064,3.064,0,0,0,.561-.061c.162-.03.252.03.273.182l.121,1.047a.233.233,0,0,1-.182.273A3.371,3.371,0,0,1,1316.221,3988.238Z" transform="translate(-1241.144 -3947.875)" fill="#67737a"/>
      <path id="Path_12393" data-name="Path 12393" d="M1347.265,3980.578a1.155,1.155,0,0,1-.819-.311,1.011,1.011,0,0,1,0-1.5,1.224,1.224,0,0,1,1.631,0,1,1,0,0,1,0,1.5A1.165,1.165,0,0,1,1347.265,3980.578Zm-.7,8.878a.2.2,0,0,1-.228-.228V3982.4a.2.2,0,0,1,.228-.228h1.4a.2.2,0,0,1,.228.228v6.829a.2.2,0,0,1-.228.228Z" transform="translate(-1268.804 -3949.321)" fill="#67737a"/>
      <path id="Path_12394" data-name="Path 12394" d="M1374.692,4011.852a4.4,4.4,0,0,1-2.5-.637,2.485,2.485,0,0,1-1.115-1.776q-.03-.242.228-.243l1.275.015a.242.242,0,0,1,.243.2q.334,1.017,1.867,1.017a2.179,2.179,0,0,0,1.063-.228.673.673,0,0,0,.409-.592.682.682,0,0,0-.5-.645,4.83,4.83,0,0,0-1.207-.3q-.706-.091-1.411-.243a2.393,2.393,0,0,1-1.206-.645,1.819,1.819,0,0,1-.5-1.358,1.972,1.972,0,0,1,.88-1.67,3.873,3.873,0,0,1,2.322-.637,4.038,4.038,0,0,1,2.246.592,2.23,2.23,0,0,1,1.063,1.563q.03.243-.228.243h-1.275c-.132,0-.213-.045-.243-.136a1.2,1.2,0,0,0-.569-.66,1.949,1.949,0,0,0-.994-.25,2,2,0,0,0-.994.212.635.635,0,0,0-.372.561.7.7,0,0,0,.357.623,2.059,2.059,0,0,0,.88.288q.524.061,1.146.189a10.312,10.312,0,0,1,1.146.3,1.81,1.81,0,0,1,.88.645,1.93,1.93,0,0,1,.357,1.2,2.026,2.026,0,0,1-.9,1.715A3.9,3.9,0,0,1,1374.692,4011.852Z" transform="translate(-1290.373 -3971.489)" fill="#67737a"/>
      <path id="Path_12395" data-name="Path 12395" d="M1433.592,4011.852a4.055,4.055,0,0,1-2.929-1.062,4.111,4.111,0,0,1,0-5.615,4.545,4.545,0,0,1,5.364-.349,3,3,0,0,1,1.237,1.9q.046.243-.2.243h-1.441a.242.242,0,0,1-.243-.2,1.462,1.462,0,0,0-.652-.781,2.143,2.143,0,0,0-1.138-.3,2.088,2.088,0,0,0-1.586.63,2.6,2.6,0,0,0,0,3.323,2.086,2.086,0,0,0,1.586.63,2.145,2.145,0,0,0,1.138-.3,1.461,1.461,0,0,0,.652-.781.242.242,0,0,1,.243-.2h1.441q.243,0,.2.243a3,3,0,0,1-1.237,1.9A4.068,4.068,0,0,1,1433.592,4011.852Z" transform="translate(-1340.897 -3971.489)" fill="#67737a"/>
      <path id="Path_12396" data-name="Path 12396" d="M1501.247,4010.79a4.591,4.591,0,0,1-5.873,0,4.091,4.091,0,0,1,0-5.615,4.59,4.59,0,0,1,5.873,0,4.092,4.092,0,0,1,0,5.615Zm-4.53-1.154a2.351,2.351,0,0,0,3.187,0,2.556,2.556,0,0,0,0-3.308,2.351,2.351,0,0,0-3.187,0,2.556,2.556,0,0,0,0,3.308Z" transform="translate(-1396.798 -3971.489)" fill="#67737a"/>
    </g>
    <path id="Path_12397" data-name="Path 12397" d="M664.591,3772.785h-4.486v-3.432h2.68a.723.723,0,0,0,.723-.723v-2.289a.723.723,0,0,0-.723-.722H657.4v1.445h4.667v.843h-7.467v-.843h1.174v-1.445h-1.9a.723.723,0,0,0-.723.722v2.289a.723.723,0,0,0,.723.723h2.68v3.432h-4.486a.723.723,0,0,0-.723.722v2.59a.723.723,0,0,0,.723.723h1.505v11.623h1.445v-4.728h6.625v9.545h-6.625v-3.192h-1.445v3.915a.722.722,0,0,0,.723.723h.879a3.157,3.157,0,0,0,2.433,3.01v7.408a.723.723,0,1,0,1.445,0v-7.408a3.158,3.158,0,0,0,2.433-3.01h.879a.722.722,0,0,0,.723-.723V3776.82h1.505a.723.723,0,0,0,.723-.723v-2.59A.723.723,0,0,0,664.591,3772.785Zm-6.263,23.576a1.715,1.715,0,0,1-1.71-1.656h3.42A1.715,1.715,0,0,1,658.328,3796.361ZM658,3769.533h.663v2.951H658Zm3.644,12.737h-6.625v-.723h3.041a.723.723,0,1,0,0-1.445h-3.041v-1.129h3.041a.723.723,0,0,0,0-1.446h-3.041v-.707h6.625Zm2.228-6.9h-11.08v-1.144h11.08Z" transform="translate(-635.501 -3748.074)" fill="#67737a"/>
    <path id="Path_12398" data-name="Path 12398" d="M587.084,3700.21l1.874.3a1.152,1.152,0,0,0,1.283-.806,13.063,13.063,0,0,1,10.071-9.05,1.157,1.157,0,0,0,.913-1.438l-.5-1.823a1.156,1.156,0,0,0-1.341-.829,17.238,17.238,0,0,0-13.236,12.2A1.154,1.154,0,0,0,587.084,3700.21Z" transform="translate(-579.139 -3679.75)" fill="#67737a"/>
    <path id="Path_12399" data-name="Path 12399" d="M535.855,3656l1.866.294a1.149,1.149,0,0,0,1.3-.849,20.06,20.06,0,0,1,15.234-14.7,1.151,1.151,0,0,0,.867-1.429l-.5-1.819a1.152,1.152,0,0,0-1.351-.827,24.245,24.245,0,0,0-18.355,17.909A1.157,1.157,0,0,0,535.855,3656Z" transform="translate(-534.882 -3636.643)" fill="#67737a"/>
  </g>
  <ellipse id="Ellipse_233" data-name="Ellipse 233" cx="2.001" cy="1.95" rx="2.001" ry="1.95" transform="translate(114.215 30.088)" fill="#67737a"/>
</svg>
