<svg id="Group_4023" data-name="Group 4023" xmlns="http://www.w3.org/2000/svg" width="150" height="41.189" viewBox="0 0 150 41.189">
  <g id="Group_4021" data-name="Group 4021" transform="translate(45.34 9.07)">
    <g id="Group_4020" data-name="Group 4020">
      <g id="Group_4017" data-name="Group 4017" transform="translate(1.138 19.444)">
        <path id="Path_12418" data-name="Path 12418" d="M862.193,583.437a3.461,3.461,0,0,1-2.49-.905,3.152,3.152,0,0,1-.95-2.393,3.2,3.2,0,0,1,.925-2.392,3.317,3.317,0,0,1,2.425-.905,3.2,3.2,0,0,1,2.36.892,3.169,3.169,0,0,1,.9,2.354c0,.121-.008.293-.025.517a.2.2,0,0,1-.22.168h-4.772a1.855,1.855,0,0,0,.685,1.022,1.959,1.959,0,0,0,1.2.375,1.533,1.533,0,0,0,1.229-.453.345.345,0,0,1,.246-.116h1.28a.187.187,0,0,1,.156.065.129.129,0,0,1,0,.155A2.543,2.543,0,0,1,864.01,583,3.694,3.694,0,0,1,862.193,583.437Zm-1.888-3.776h3.453a1.6,1.6,0,0,0-.459-1.119,1.566,1.566,0,0,0-1.157-.433,1.86,1.86,0,0,0-1.235.427A1.7,1.7,0,0,0,860.3,579.661Z" transform="translate(-858.753 -573.868)" fill="#96a3ab"/>
        <path id="Path_12419" data-name="Path 12419" d="M889.421,583.437a3.75,3.75,0,0,1-2.127-.543,2.115,2.115,0,0,1-.951-1.513c-.017-.138.047-.207.194-.207l1.086.013a.207.207,0,0,1,.207.168q.284.867,1.591.866a1.853,1.853,0,0,0,.9-.194.574.574,0,0,0,.35-.5.581.581,0,0,0-.427-.549,4.142,4.142,0,0,0-1.028-.252q-.6-.078-1.2-.207a2.047,2.047,0,0,1-1.028-.549,1.549,1.549,0,0,1-.427-1.157,1.679,1.679,0,0,1,.75-1.423,3.3,3.3,0,0,1,1.979-.543,3.443,3.443,0,0,1,1.915.5,1.9,1.9,0,0,1,.9,1.332q.026.207-.194.207H890.83c-.112,0-.18-.039-.207-.116a1.019,1.019,0,0,0-.485-.563,1.665,1.665,0,0,0-.848-.213,1.708,1.708,0,0,0-.847.181.54.54,0,0,0-.316.479.6.6,0,0,0,.3.53,1.749,1.749,0,0,0,.75.246q.446.052.977.161a8.747,8.747,0,0,1,.976.259,1.539,1.539,0,0,1,.75.55,1.644,1.644,0,0,1,.3,1.022,1.724,1.724,0,0,1-.763,1.461A3.323,3.323,0,0,1,889.421,583.437Z" transform="translate(-878.183 -573.868)" fill="#96a3ab"/>
        <path id="Path_12420" data-name="Path 12420" d="M928.806,576.842a3.412,3.412,0,0,1,2.464.925,3.4,3.4,0,0,1,0,4.746,3.41,3.41,0,0,1-2.464.925,3.035,3.035,0,0,1-1.823-.569v3.155a.172.172,0,0,1-.195.194H925.6a.171.171,0,0,1-.194-.194V578.7q0-.479-.543-.479a3.333,3.333,0,0,0-.362.039c-.155.018-.232-.034-.232-.155V577.2a.22.22,0,0,1,.155-.233,2.269,2.269,0,0,1,.789-.129,1.492,1.492,0,0,1,1.474.815A2.951,2.951,0,0,1,928.806,576.842Zm-.013,5.3a1.747,1.747,0,0,0,1.338-.563,2.247,2.247,0,0,0,0-2.884,1.747,1.747,0,0,0-1.338-.562,1.672,1.672,0,0,0-1.306.562,2.314,2.314,0,0,0,0,2.884A1.672,1.672,0,0,0,928.793,582.144Z" transform="translate(-904.894 -573.868)" fill="#96a3ab"/>
        <path id="Path_12421" data-name="Path 12421" d="M961.809,576.971a.19.19,0,0,1,.142.233l-.156.97a.174.174,0,0,1-.232.155,4.206,4.206,0,0,0-.737-.065,1.843,1.843,0,0,0-1.352.518,1.824,1.824,0,0,0-.524,1.358v2.91a.171.171,0,0,1-.194.194h-1.19a.171.171,0,0,1-.194-.194V578.7q0-.479-.543-.479a3.329,3.329,0,0,0-.362.039c-.155.018-.233-.034-.233-.155V577.2a.22.22,0,0,1,.156-.233,2.654,2.654,0,0,1,.788-.129,1.43,1.43,0,0,1,1.513.931,2.788,2.788,0,0,1,2.147-.931A3.363,3.363,0,0,1,961.809,576.971Z" transform="translate(-927.409 -573.868)" fill="#96a3ab"/>
        <path id="Path_12422" data-name="Path 12422" d="M983.161,583.437a3.46,3.46,0,0,1-2.49-.905,3.15,3.15,0,0,1-.95-2.393,3.2,3.2,0,0,1,.924-2.392,3.318,3.318,0,0,1,2.425-.905,3.2,3.2,0,0,1,2.36.892,3.169,3.169,0,0,1,.9,2.354q0,.181-.025.517a.2.2,0,0,1-.22.168h-4.771A1.85,1.85,0,0,0,982,581.8a1.957,1.957,0,0,0,1.2.375,1.533,1.533,0,0,0,1.229-.453.347.347,0,0,1,.246-.116h1.28a.187.187,0,0,1,.155.065.13.13,0,0,1,0,.155A2.545,2.545,0,0,1,984.978,583,3.7,3.7,0,0,1,983.161,583.437Zm-1.888-3.776h3.453a1.606,1.606,0,0,0-.459-1.119,1.565,1.565,0,0,0-1.157-.433,1.862,1.862,0,0,0-1.235.427A1.693,1.693,0,0,0,981.272,579.661Z" transform="translate(-943.95 -573.868)" fill="#96a3ab"/>
        <path id="Path_12423" data-name="Path 12423" d="M1009.263,583.705a.223.223,0,0,1-.219-.142l-2.807-5.833c-.069-.155-.021-.233.143-.233h1.28a.224.224,0,0,1,.22.142l1.927,4.164,1.953-4.164a.224.224,0,0,1,.22-.142h1.254q.246,0,.142.233l-2.806,5.833a.225.225,0,0,1-.22.142Z" transform="translate(-962.604 -574.33)" fill="#96a3ab"/>
        <path id="Path_12424" data-name="Path 12424" d="M1038.134,583.437a3.459,3.459,0,0,1-2.49-.905,3.149,3.149,0,0,1-.951-2.393,3.2,3.2,0,0,1,.924-2.392,3.318,3.318,0,0,1,2.425-.905,3.2,3.2,0,0,1,2.36.892,3.169,3.169,0,0,1,.9,2.354c0,.121-.009.293-.026.517a.2.2,0,0,1-.22.168h-4.771a1.85,1.85,0,0,0,.685,1.022,1.956,1.956,0,0,0,1.2.375,1.533,1.533,0,0,0,1.228-.453.346.346,0,0,1,.246-.116h1.281a.186.186,0,0,1,.155.065.13.13,0,0,1,0,.155,2.546,2.546,0,0,1-1.131,1.177A3.694,3.694,0,0,1,1038.134,583.437Zm-1.888-3.776h3.453a1.605,1.605,0,0,0-.459-1.119,1.565,1.565,0,0,0-1.157-.433,1.863,1.863,0,0,0-1.235.427A1.692,1.692,0,0,0,1036.246,579.661Z" transform="translate(-982.668 -573.868)" fill="#96a3ab"/>
        <path id="Path_12425" data-name="Path 12425" d="M1066.8,576.842a2.726,2.726,0,0,1,2.05.808,2.932,2.932,0,0,1,.782,2.127v3.272a.171.171,0,0,1-.194.194h-1.19a.171.171,0,0,1-.194-.194v-3.182a1.676,1.676,0,0,0-.44-1.209,1.521,1.521,0,0,0-1.151-.459,1.712,1.712,0,0,0-1.215.433,1.489,1.489,0,0,0-.466,1.144v3.272a.171.171,0,0,1-.194.194h-1.19a.171.171,0,0,1-.194-.194V578.7q0-.479-.543-.479a3.33,3.33,0,0,0-.362.039c-.156.018-.233-.034-.233-.155V577.2a.22.22,0,0,1,.156-.233,2.263,2.263,0,0,1,.788-.129,1.492,1.492,0,0,1,1.474.815A3.215,3.215,0,0,1,1066.8,576.842Z" transform="translate(-1001.949 -573.868)" fill="#96a3ab"/>
        <path id="Path_12426" data-name="Path 12426" d="M1095.416,568.594a.985.985,0,0,1-.7-.265.862.862,0,0,1,0-1.28,1.044,1.044,0,0,1,1.39,0,.85.85,0,0,1,0,1.28A.994.994,0,0,1,1095.416,568.594Zm-.595,7.565a.172.172,0,0,1-.195-.194v-5.82a.172.172,0,0,1,.195-.194h1.19a.172.172,0,0,1,.194.194v5.82a.171.171,0,0,1-.194.194Z" transform="translate(-1024.742 -566.784)" fill="#96a3ab"/>
        <path id="Path_12427" data-name="Path 12427" d="M1112.121,576.971a.189.189,0,0,1,.142.233l-.155.97a.174.174,0,0,1-.232.155,4.205,4.205,0,0,0-.737-.065,1.842,1.842,0,0,0-1.352.518,1.823,1.823,0,0,0-.524,1.358v2.91a.171.171,0,0,1-.194.194h-1.19a.171.171,0,0,1-.194-.194V578.7q0-.479-.543-.479a3.34,3.34,0,0,0-.362.039c-.155.018-.233-.034-.233-.155V577.2a.22.22,0,0,1,.156-.233,2.654,2.654,0,0,1,.788-.129,1.429,1.429,0,0,1,1.513.931,2.788,2.788,0,0,1,2.147-.931A3.365,3.365,0,0,1,1112.121,576.971Z" transform="translate(-1033.273 -573.868)" fill="#96a3ab"/>
      </g>
      <g id="Group_4019" data-name="Group 4019">
        <path id="Path_12428" data-name="Path 12428" d="M934.725,531.627a.539.539,0,0,1-.464.653,8.5,8.5,0,0,1-1.94.232q-2.467,0-3.289-1.35a4.5,4.5,0,0,1-3.479,1.35,4.139,4.139,0,0,1-4.428-4.407v-5.883q0-.548.59-.549H925q.59,0,.591.549v4.871q0,1.645,1.37,1.644a1.338,1.338,0,0,0,1.065-.421,1.735,1.735,0,0,0,.369-1.181v-4.913q0-.548.569-.549h3.31q.59,0,.591.549v5.651a1.47,1.47,0,0,0,.127.727.529.529,0,0,0,.485.2,2.3,2.3,0,0,0,.359-.021q.569,0,.633.485Z" transform="translate(-901.543 -515.569)" fill="#96a3ab"/>
        <path id="Path_12429" data-name="Path 12429" d="M975.329,521.827h-3.276q-.589,0-.589.546v9.28q0,.567.589.567h3.276a.51.51,0,0,0,.586-.567v-9.28C975.915,522.009,975.719,521.827,975.329,521.827Z" transform="translate(-936.997 -515.677)" fill="#96a3ab"/>
        <path id="Path_12430" data-name="Path 12430" d="M1006.516,518.616l-.251-2.35c-.04-.323-.251-.483-.629-.483a1.93,1.93,0,0,1-.316.021.6.6,0,0,1-.5-.189,1.133,1.133,0,0,1-.148-.672V503.765a.5.5,0,0,0-.567-.567h-3.274q-.589,0-.589.567v5.4a4.509,4.509,0,0,0-2.833-.859,5.287,5.287,0,0,0-3.949,1.541,6.181,6.181,0,0,0,0,8.1,5.26,5.26,0,0,0,3.949,1.553,4.293,4.293,0,0,0,3.506-1.345,3.454,3.454,0,0,0,3.128,1.345,8.712,8.712,0,0,0,2.015-.232A.553.553,0,0,0,1006.516,518.616Zm-6.306-4.556a2.353,2.353,0,0,1-2.185,2.18c-.053,0-.105,0-.158,0a2.351,2.351,0,1,1,0-4.7c.053,0,.105,0,.158,0a2.351,2.351,0,0,1,2.185,2.18,1.286,1.286,0,0,1,.007.165A1.31,1.31,0,0,1,1000.21,514.06Z" transform="translate(-951.423 -502.556)" fill="#96a3ab"/>
        <path id="Path_12431" data-name="Path 12431" d="M1101.3,520.619a3.824,3.824,0,0,0-1.175-.146,4.248,4.248,0,0,0-3.3,1.259,3.142,3.142,0,0,0-2.771-1.259,4.9,4.9,0,0,0-1.953.314.629.629,0,0,0-.462.629v2.331c0,.337.2.491.61.462h.208a.645.645,0,0,1,.536.18,1.2,1.2,0,0,1,.136.682V530.7q0,.567.589.567H1097a.51.51,0,0,0,.586-.567V526.6a1.9,1.9,0,0,1,.61-1.541,2.344,2.344,0,0,1,1.575-.514,4.389,4.389,0,0,1,1.069.124.469.469,0,0,0,.589-.462l.335-2.939A.537.537,0,0,0,1101.3,520.619Z" transform="translate(-1021.637 -514.72)" fill="#96a3ab"/>
        <path id="Path_12432" data-name="Path 12432" d="M1137.674,526.172a3.516,3.516,0,0,0-1.68-1.06,15.4,15.4,0,0,0-1.962-.431,13.57,13.57,0,0,1-1.671-.345c-.462-.134-.692-.325-.692-.579,0-.321.378-.483,1.134-.483a1.541,1.541,0,0,1,1.407.567.755.755,0,0,0,.629.337h2.709a.637.637,0,0,0,.45-.148.441.441,0,0,0,.115-.419,3.394,3.394,0,0,0-1.752-2.278,7.235,7.235,0,0,0-3.685-.85,6.56,6.56,0,0,0-3.738.964,2.964,2.964,0,0,0-1.426,2.563,3.121,3.121,0,0,0,.651,2.077,3.011,3.011,0,0,0,1.575,1.02,13.232,13.232,0,0,0,1.835.345,13.371,13.371,0,0,1,1.565.263c.433.105.651.282.651.536q0,.524-1.07.524a2.1,2.1,0,0,1-1.68-.524,1.035,1.035,0,0,0-.672-.378h-2.749a.629.629,0,0,0-.462.146.424.424,0,0,0-.084.421,3.376,3.376,0,0,0,1.8,2.362,7.753,7.753,0,0,0,3.862.871,7.958,7.958,0,0,0,4.178-.9,2.877,2.877,0,0,0,1.45-2.585A2.916,2.916,0,0,0,1137.674,526.172Z" transform="translate(-1046.578 -514.731)" fill="#96a3ab"/>
        <path id="Path_12433" data-name="Path 12433" d="M1179.264,522.006a6.89,6.89,0,0,0-8.651.009,5.344,5.344,0,0,0-1.606,4.051,5.241,5.241,0,0,0,1.69,4.064,6.387,6.387,0,0,0,4.482,1.544,6.539,6.539,0,0,0,3.444-.852,4.345,4.345,0,0,0,1.931-2.362.449.449,0,0,0-.053-.44.552.552,0,0,0-.45-.168h-2.939a1.308,1.308,0,0,0-.756.316,1.679,1.679,0,0,1-1.134.4,1.936,1.936,0,0,1-2.1-1.553h7.033c.419,0,.63-.182.63-.545v-.44A5.435,5.435,0,0,0,1179.264,522.006ZM1173.142,525a1.746,1.746,0,0,1,.641-1.144,1.964,1.964,0,0,1,1.271-.431,1.919,1.919,0,0,1,1.271.431,1.77,1.77,0,0,1,.618,1.144Z" transform="translate(-1076.125 -514.731)" fill="#96a3ab"/>
        <g id="Group_4018" data-name="Group 4018" transform="translate(55.459 5.742)">
          <path id="Path_12434" data-name="Path 12434" d="M1057.024,530.754l-.232-2.352c-.043-.32-.251-.483-.63-.483a2.679,2.679,0,0,1-.378.022.53.53,0,0,1-.483-.2,1.474,1.474,0,0,1-.127-.725V521.39a.493.493,0,0,0-.565-.548H1051.5c-.392,0-.589.184-.589.548v.084a4.286,4.286,0,0,0-3-1.029,5.28,5.28,0,0,0-3.948,1.543,6.177,6.177,0,0,0,0,8.093,5.259,5.259,0,0,0,3.948,1.553,5.481,5.481,0,0,0,3.59-1.218,3.686,3.686,0,0,0,3.127,1.218,8.606,8.606,0,0,0,1.931-.23A.539.539,0,0,0,1057.024,530.754Zm-7.684-2.462c-.034.009-.067.019-.1.026a.8.8,0,0,1-.105.022c-.031.007-.064.012-.1.019s-.079.01-.12.012l-.113.007c-.031,0-.062,0-.1,0l-.132,0a2.01,2.01,0,0,1-.216-.022.014.014,0,0,0-.009,0,1.4,1.4,0,0,1-.227-.048l-.079-.022a2.34,2.34,0,0,1-.3-4.377,1.89,1.89,0,0,1,.943-.23,2.015,2.015,0,0,1,.976.225,2.34,2.34,0,0,1-.323,4.389Z" transform="translate(-1042.453 -520.445)" fill="#96a3ab"/>
        </g>
        <path id="Path_12435" data-name="Path 12435" d="M860.592,509.5c0,.059,0,.118,0,.174a3.485,3.485,0,0,0,3.345,3.306,1.111,1.111,0,0,0,.139.006,3.482,3.482,0,0,0,3.13-1.953.747.747,0,0,1,.667-.431h3.717a.734.734,0,0,1,.733.733v.092a7.443,7.443,0,0,1-2.824,4.811,9.277,9.277,0,0,1-5.784,1.733,8.834,8.834,0,0,1-6.393-2.33,9,9,0,0,1,0-12.284,8.834,8.834,0,0,1,6.393-2.33,9.277,9.277,0,0,1,5.784,1.733,7.443,7.443,0,0,1,2.824,4.811v.092a.733.733,0,0,1-.733.733h-3.717a.747.747,0,0,1-.667-.431,3.483,3.483,0,0,0-3.13-1.953,1.083,1.083,0,0,0-.139.006A3.482,3.482,0,0,0,860.592,509.5Z" transform="translate(-854.903 -501.028)" fill="#96a3ab"/>
        <ellipse id="Ellipse_236" data-name="Ellipse 236" cx="2.665" cy="2.665" rx="2.665" ry="2.665" transform="translate(34.029 0.001)" fill="#96a3ab"/>
      </g>
    </g>
  </g>
  <g id="Group_4022" data-name="Group 4022" transform="translate(0)">
    <path id="Rectangle_6013" data-name="Rectangle 6013" d="M13.687,0h6.844a6.844,6.844,0,0,1,6.844,6.844v0a6.844,6.844,0,0,1-6.844,6.844H0a0,0,0,0,1,0,0v0A13.687,13.687,0,0,1,13.687,0Z" transform="translate(9.678 31.511) rotate(-45)" fill="#67737a"/>
    <path id="Rectangle_6014" data-name="Rectangle 6014" d="M0,0H20.531a6.844,6.844,0,0,1,6.844,6.844v0a6.844,6.844,0,0,1-6.844,6.844H13.687A13.687,13.687,0,0,1,0,0V0A0,0,0,0,1,0,0Z" transform="translate(19.356 41.189) rotate(-135)" fill="#96a3ab"/>
    <ellipse id="Ellipse_237" data-name="Ellipse 237" cx="6.841" cy="6.841" rx="6.841" ry="6.841" transform="translate(12.515)" fill="#96a3ab"/>
  </g>
</svg>
